<svg xmlns="http://www.w3.org/2000/svg" width="207.31" height="70"><g data-name="Group 10"><g data-name="Group 8"><path data-name="Rectangle 56" fill="#cc2206" d="M6.08 47.3l3.25-3.23 1.24 1.25-3.25 3.23z"/><path data-name="Rectangle 57" fill="#dbdb0b" d="M9.32 44.07l3.23-3.2 1.24 1.25-3.22 3.2z"/><path data-name="Rectangle 58" fill="#dbdb0b" d="M8.22 49.45l3.25-3.23 1.24 1.26-3.25 3.23z"/><path data-name="Rectangle 59" fill="#cc2206" d="M11.46 46.22l3.23-3.2 1.24 1.26-3.22 3.2z"/><path data-name="Rectangle 60" fill="#05aa63" d="M3.94 45.14l3.25-3.23 1.24 1.26-3.25 3.22z"/><path data-name="Rectangle 61" fill="#ae0fba" d="M7.18 41.91l3.23-3.2 1.24 1.26-3.22 3.2z"/><path data-name="Rectangle 62" fill="#05aa63" d="M20.38 54.32l3.05-3.41 1.32 1.18-3.05 3.41z"/><path data-name="Rectangle 63" fill="#ae0fba" d="M17.36 57.7l3.02-3.38 1.32 1.18-3.03 3.38z"/><path data-name="Rectangle 64" fill="#dbdb0b" d="M18.11 52.3l3.06-3.42 1.32 1.18-3.06 3.42z"/><path data-name="Rectangle 65" fill="#cc2206" d="M15.1 55.68l3.02-3.39 1.32 1.19-3.03 3.38z"/><path data-name="Rectangle 66" fill="#05aa63" d="M22.64 56.35l3.06-3.42 1.32 1.18-3.06 3.42z"/><path data-name="Rectangle 67" fill="#ae0fba" d="M19.62 59.73l3.03-3.39 1.32 1.19-3.03 3.38z"/><path data-name="Rectangle 68" fill="#ae0fba" d="M30.71 63.34l1.73-.37.97 4.47-1.73.38z"/><path data-name="Rectangle 69" fill="#05aa63" d="M29.75 58.91l1.73-.37.96 4.43-1.73.38z"/><path data-name="Rectangle 70" fill="#dbdb0b" d="M33.68 62.7l1.73-.38.97 4.48-1.73.38z"/><path data-name="Rectangle 71" fill="#cc2206" d="M32.72 58.27l1.73-.38.96 4.44-1.73.37z"/><path data-name="Rectangle 72" fill="#dbdb0b" d="M27.74 63.99l1.73-.38.97 4.48-1.73.37z"/><path data-name="Rectangle 73" fill="#cc2206" d="M26.78 59.55l1.73-.37.96 4.44-1.73.37z"/><path data-name="Rectangle 74" fill="#cc2206" d="M37.5 51.44l.69-1.63 4.22 1.76-.68 1.64z"/><path data-name="Rectangle 75" fill="#dbdb0b" d="M33.32 49.69l.68-1.64 4.19 1.76-.68 1.63z"/><path data-name="Rectangle 76" fill="#ae0fba" d="M38.68 48.64l.68-1.63 4.23 1.76-.69 1.63z"/><path data-name="Rectangle 77" fill="#05aa63" d="M34.5 46.88l.68-1.63L39.36 47l-.68 1.64z"/><path data-name="Rectangle 78" fill="#05aa63" d="M36.33 54.24l.69-1.63 4.22 1.77-.68 1.63z"/><path data-name="Rectangle 79" fill="#ae0fba" d="M32.15 52.49l.68-1.63 4.19 1.75-.69 1.63z"/><path data-name="Rectangle 80" fill="#05aa63" d="M39.73 35.49l.89-1.54 4.19 2.42-.88 1.53z"/><path data-name="Rectangle 81" fill="#ae0fba" d="M43.93 37.9l.88-1.53 4.16 2.4-.88 1.53z"/><path data-name="Rectangle 82" fill="#dbdb0b" d="M38.22 38.12l.88-1.53L43.3 39l-.9 1.53z"/><path data-name="Rectangle 83" fill="#cc2206" d="M42.41 40.54l.88-1.54 4.16 2.4-.88 1.53z"/><path data-name="Rectangle 84" fill="#dbdb0b" d="M41.25 32.85l.89-1.53 4.19 2.42-.89 1.53z"/><path data-name="Rectangle 85" fill="#cc2206" d="M45.45 35.27l.88-1.53 4.16 2.4-.89 1.53z"/><path data-name="Rectangle 86" fill="#ae0fba" d="M51.45 24.62l.88-1.54 4.14 2.39L55.6 27z"/><path data-name="Rectangle 87" fill="#05aa63" d="M47.34 22.25l.89-1.53 4.1 2.36-.88 1.54z"/><path data-name="Rectangle 88" fill="#dbdb0b" d="M52.97 21.98l.88-1.53L58 22.84l-.88 1.53z"/><path data-name="Rectangle 89" fill="#cc2206" d="M48.86 19.62l.89-1.54 4.1 2.37-.88 1.54z"/><path data-name="Rectangle 90" fill="#05aa63" d="M49.93 27.25l.89-1.53 4.14 2.38-.89 1.54z"/><path data-name="Rectangle 91" fill="#ae0fba" d="M45.83 24.88l.88-1.53 4.1 2.37-.88 1.53z"/><path data-name="Rectangle 92" fill="#05aa63" d="M56.23 9.05l1.04-1.43 3.88 2.79-1.03 1.43z"/><path data-name="Rectangle 93" fill="#ae0fba" d="M60.12 11.84l1.03-1.43L65 13.17l-1.03 1.44z"/><path data-name="Rectangle 94" fill="#dbdb0b" d="M54.46 11.52l1.04-1.44 3.88 2.8-1.04 1.43z"/><path data-name="Rectangle 95" fill="#cc2206" d="M58.34 14.31l1.04-1.44 3.85 2.77-1.04 1.44z"/><path data-name="Rectangle 96" fill="#cc2206" d="M58 6.59l1.04-1.44 3.88 2.79-1.03 1.44z"/><path data-name="Rectangle 97" fill="#dbdb0b" d="M61.9 9.38l1.02-1.44 3.85 2.77-1.03 1.43z"/><path data-name="Path 14" d="M21.46 61.3a6.73 6.73 0 01-4.2-1.43 6.96 6.96 0 01-2.6-5.38l-.27-8.99a5.07 5.07 0 00-6-4.99L.32 41.76 0 39.66l8.06-1.25a7.2 7.2 0 018.45 7.03l.27 8.99a4.67 4.67 0 005.87 4.61l15.63-3.28a4.64 4.64 0 003.47-6.58l-3.7-9.01a6.56 6.56 0 015.07-9.26l7.97-1.44a6 6 0 004.83-6.98L54.3 13.8A7.53 7.53 0 0161 4.85l9.56-1.01.22 2.11-9.57 1a5.4 5.4 0 00-4.82 6.47L58 22.1a8.13 8.13 0 01-6.53 9.47L43.5 33A4.44 4.44 0 0040 39.36l3.71 9.01a6.76 6.76 0 01-5 9.47l-15.63 3.28a7.92 7.92 0 01-1.63.17z"/><path data-name="Path 15" d="M30.82 70a6.13 6.13 0 01-4.19-1.54 6.44 6.44 0 01-1.97-5.49l.58-6.79a4.66 4.66 0 00-5.3-5.24l-8.42.8a7.22 7.22 0 01-8.05-7.5l.21-9.08 2.13.05-.22 9.08a5.1 5.1 0 005.72 5.33l8.42-.8a6.78 6.78 0 017.62 7.54l-.57 6.79a4.06 4.06 0 005.1 4.62l.68-.13a4.14 4.14 0 003.16-6.21l-3.68-7.75a6.64 6.64 0 014.54-9.6l8.03-2a5.48 5.48 0 003.94-7.1l-2.8-8.64a6.79 6.79 0 015.71-9.07l8.5-1.15a5.45 5.45 0 004.68-6.61L62.74.44 64.82 0l1.9 9.07a7.58 7.58 0 01-6.48 9.16l-8.5 1.14a4.66 4.66 0 00-3.97 6.31l2.8 8.64a7.6 7.6 0 01-5.45 9.82l-8.03 2a4.52 4.52 0 00-3.13 6.63l3.68 7.74a6.26 6.26 0 01-4.69 9.22l-.67.13a7.95 7.95 0 01-1.46.14z"/></g><g data-name="Group 9"><path data-name="Path 16" d="M75.55 47.02a6.58 6.58 0 01-3-2.1l3.04-3.15a5.1 5.1 0 004.2 1.85 5.34 5.34 0 002.3-.44 3.66 3.66 0 001.56-1.6 10.54 10.54 0 001-3.31l.53-3.12h-.21a11.12 11.12 0 01-2.49 3.52 5.14 5.14 0 01-3.53 1.2 4.67 4.67 0 01-4.1-1.88 8.73 8.73 0 01-1.33-5.11 15.85 15.85 0 011-5.83 8.96 8.96 0 012.85-3.96 6.95 6.95 0 014.34-1.42 4.3 4.3 0 014.76 3.78h.28l.56-3.36h5.11l-2.8 16.8a10.78 10.78 0 01-3.18 6.52 9.46 9.46 0 01-6.51 2.17 14.36 14.36 0 01-4.38-.56zm7.25-11.54a5.13 5.13 0 001.36-1.2 10.14 10.14 0 001.09-1.53 5.48 5.48 0 00.63-1.9l.38-2.35a4.27 4.27 0 00.07-.6 2.07 2.07 0 00-.72-1.66 3.25 3.25 0 00-2.15-.62 3.76 3.76 0 00-2.9 1.14 6.04 6.04 0 00-1.4 3.13l-.25 1.47a10.44 10.44 0 00-.14 1.72 3.23 3.23 0 00.6 2.03 2.16 2.16 0 001.82.77 3.17 3.17 0 001.6-.4z"/><path data-name="Path 17" d="M95.28 38.56a7.77 7.77 0 01-1.98-5.69 12.44 12.44 0 011.33-5.86 9.63 9.63 0 013.73-3.94 10.87 10.87 0 015.58-1.4 8.24 8.24 0 014.76 1.3 4.2 4.2 0 011.9 3.67 5.2 5.2 0 01-2.6 4.4q-2.59 1.77-9.59 2.01a4.79 4.79 0 00-.03.6q0 3.01 3.46 3.01a4.69 4.69 0 002.54-.65 10.68 10.68 0 002.43-2.43l3.19 2.06a13.08 13.08 0 01-3.64 3.66 9.47 9.47 0 01-5.18 1.28q-3.92 0-5.9-2.02zm3.59-8.94l-.1.49a20.03 20.03 0 004.51-.65 3.98 3.98 0 001.94-1.05 2.12 2.12 0 00.44-1.31q0-1.82-2.24-1.82-3.65 0-4.56 4.34z"/><path data-name="Path 18" d="M111.47 40.16l3-18.07h5.12l-.7 4.3h.17a10.45 10.45 0 012.45-3.53 5.03 5.03 0 013.43-1.19 4.56 4.56 0 013.71 1.47 5.66 5.66 0 011.23 3.75 23.56 23.56 0 01-.39 3.64l-1.6 9.63h-5.12l1.72-10.26.14-.79a8.58 8.58 0 00.1-1.38 2.35 2.35 0 00-.51-1.49 1.9 1.9 0 00-1.6-.64 2.91 2.91 0 00-1.53.4 4.75 4.75 0 00-1.3 1.24 8.18 8.18 0 00-1.65 3.5l-1.57 9.42z"/><path data-name="Path 19" d="M133.78 38.56a7.77 7.77 0 01-1.98-5.69 12.45 12.45 0 011.33-5.86 9.63 9.63 0 013.73-3.94 10.87 10.87 0 015.58-1.4 8.24 8.24 0 014.76 1.3 4.2 4.2 0 011.9 3.67 5.2 5.2 0 01-2.6 4.4q-2.59 1.77-9.59 2.01a4.74 4.74 0 00-.03.6q0 3.01 3.46 3.01a4.69 4.69 0 002.54-.65 10.68 10.68 0 002.43-2.43l3.19 2.06a13.08 13.08 0 01-3.64 3.66 9.47 9.47 0 01-5.18 1.28q-3.92 0-5.9-2.02zm3.59-8.94l-.1.49a20.03 20.03 0 004.51-.65 3.99 3.99 0 001.95-1.05 2.12 2.12 0 00.43-1.31q0-1.82-2.24-1.82-3.64 0-4.55 4.34z"/><path data-name="Path 20" d="M76.04 66.92a7.7 7.7 0 01-1.96-5.64 13.55 13.55 0 011.17-5.69 9.3 9.3 0 018.84-5.58 8.03 8.03 0 014.7 1.2 5.9 5.9 0 012.3 3.38l-4.16 1.96a4.2 4.2 0 00-1.12-1.83 3.17 3.17 0 00-2.14-.62 3.51 3.51 0 00-2.53 1 5 5 0 00-1.35 2.86l-.35 2.1a9.97 9.97 0 00-.14 1.64q0 3.12 3.18 3.12a3.75 3.75 0 001.47-.28 5.16 5.16 0 001.5-1.1 24.06 24.06 0 002.1-2.47l3.19 2.06a15.21 15.21 0 01-3.97 4.47 8.8 8.8 0 01-5.13 1.41 7.5 7.5 0 01-5.6-2z"/><path data-name="Path 21" d="M94.9 66.83a7.72 7.72 0 01-2.06-5.69 12.91 12.91 0 011.28-5.92 9.1 9.1 0 013.6-3.86 10.46 10.46 0 015.34-1.35 7.17 7.17 0 017.78 7.77 12.92 12.92 0 01-1.28 5.92 9.11 9.11 0 01-3.6 3.86 10.46 10.46 0 01-5.35 1.35 7.67 7.67 0 01-5.7-2.08zm8.85-2.75a5.01 5.01 0 001.38-2.9l.46-2.74a10.56 10.56 0 00.17-1.43 3.19 3.19 0 00-.82-2.38 3.1 3.1 0 00-2.26-.8 3.83 3.83 0 00-2.75 1.01 5 5 0 00-1.38 2.9l-.45 2.73a10.59 10.59 0 00-.18 1.44 3.19 3.19 0 00.82 2.38 3.09 3.09 0 002.26.8 3.82 3.82 0 002.75-1z"/><path data-name="Path 22" d="M111.47 68.5l3-18.07h5.12l-.7 4.3h.17a10.44 10.44 0 012.45-3.53 5.03 5.03 0 013.43-1.2 4.56 4.56 0 013.71 1.48 5.66 5.66 0 011.23 3.74 23.57 23.57 0 01-.39 3.64l-1.6 9.63h-5.12l1.72-10.26.14-.78a8.58 8.58 0 00.1-1.39 2.35 2.35 0 00-.51-1.49 1.9 1.9 0 00-1.6-.64 2.91 2.91 0 00-1.53.4 4.74 4.74 0 00-1.3 1.24 8.18 8.18 0 00-1.65 3.5l-1.57 9.42z"/><path data-name="Path 23" d="M134.17 68.14a5.81 5.81 0 01-2.9-2.17l2.88-2.83a4.64 4.64 0 002.08 1.6 7.72 7.72 0 003 .57 5.07 5.07 0 002.52-.53 1.63 1.63 0 00.9-1.47 1.19 1.19 0 00-.47-1.01 3.78 3.78 0 00-1.38-.56l-2.59-.56a7.81 7.81 0 01-3.59-1.61 4.19 4.19 0 01-1.28-3.33 5.33 5.33 0 012.28-4.6 9.94 9.94 0 015.92-1.63 12.94 12.94 0 014.34.68 5.96 5.96 0 012.83 1.88l-2.8 2.87a4.47 4.47 0 00-1.84-1.31 6.85 6.85 0 00-2.67-.51 4.11 4.11 0 00-2.2.5 1.62 1.62 0 00-.8 1.46 1.14 1.14 0 00.41 1 3.93 3.93 0 001.37.5l2.7.6a7.78 7.78 0 013.64 1.65 4.14 4.14 0 011.22 3.22 5.42 5.42 0 01-2.4 4.68 10.97 10.97 0 01-6.46 1.7 12.97 12.97 0 01-4.71-.79z"/><path data-name="Path 24" d="M153.03 66.9a7.77 7.77 0 01-1.97-5.69 12.44 12.44 0 011.33-5.86 9.63 9.63 0 013.72-3.94 10.87 10.87 0 015.59-1.4 8.24 8.24 0 014.76 1.3 4.2 4.2 0 011.89 3.68 5.2 5.2 0 01-2.6 4.39q-2.58 1.77-9.58 2.01a4.79 4.79 0 00-.04.6q0 3.01 3.47 3.01a4.68 4.68 0 002.53-.65 10.69 10.69 0 002.44-2.43l3.18 2.07a13.07 13.07 0 01-3.64 3.65 9.47 9.47 0 01-5.18 1.28q-3.92 0-5.9-2.02zm3.6-8.94l-.1.48a20 20 0 004.5-.64 3.98 3.98 0 001.95-1.05 2.12 2.12 0 00.44-1.31q0-1.82-2.24-1.82-3.65 0-4.56 4.34z"/><path data-name="Path 25" d="M169.22 68.5l3.01-18.07h5.11l-.7 4.3h.18a10.45 10.45 0 012.45-3.53 5.03 5.03 0 013.43-1.2 4.56 4.56 0 013.7 1.48 5.66 5.66 0 011.23 3.74 23.57 23.57 0 01-.38 3.64l-1.61 9.63h-5.11l1.71-10.26q.04-.14.14-.78a8.7 8.7 0 00.1-1.39 2.35 2.35 0 00-.5-1.49 1.9 1.9 0 00-1.6-.64 2.91 2.91 0 00-1.54.4 4.75 4.75 0 00-1.3 1.24 8.17 8.17 0 00-1.64 3.5l-1.58 9.42z"/><path data-name="Path 26" d="M193.99 67.72a4.66 4.66 0 01-1.1-3.29 14.93 14.93 0 01.24-2.3l1.3-7.7h-4.62l.66-4h4.66l1.12-6.37h5.04l-1.05 6.37h7.07l-.67 4h-7.07L197.9 64.5l.7.25 5.46-4.3 2.52 2.86-2.1 1.82a27.96 27.96 0 01-3.92 2.94 6.38 6.38 0 01-3.22.84 4.34 4.34 0 01-3.34-1.19z"/></g></g></svg>