<?xml version="1.0" standalone="no"?>
<!DOCTYPE svg PUBLIC "-//W3C//DTD SVG 20010904//EN"
 "http://www.w3.org/TR/2001/REC-SVG-20010904/DTD/svg10.dtd">
<svg version="1.0" xmlns="http://www.w3.org/2000/svg"
 width="262.000000pt" height="262.000000pt" viewBox="0 0 262.000000 262.000000"
 preserveAspectRatio="xMidYMid meet">
<metadata>
Created by potrace 1.14, written by Peter Selinger 2001-2017
</metadata>
<g transform="translate(0.000000,262.000000) scale(0.100000,-0.100000)"
fill="#000000" stroke="none">
<path d="M2289 2485 c-3 -2 -16 -6 -30 -8 -26 -5 -29 -24 -14 -103 l7 -42 -63
-7 c-81 -9 -117 -24 -167 -69 -76 -69 -99 -160 -72 -280 6 -27 9 -50 8 -51 -2
-2 -20 -6 -40 -9 -21 -3 -55 -9 -75 -12 -57 -9 -95 -28 -131 -64 -73 -73 -85
-141 -47 -272 14 -50 24 -92 22 -94 -2 -2 -39 -11 -83 -20 -85 -17 -139 -41
-165 -70 -69 -78 -79 -169 -31 -282 21 -50 27 -74 19 -77 -7 -2 -39 -11 -71
-20 -96 -27 -143 -66 -172 -142 -23 -59 -15 -134 24 -216 17 -37 28 -69 24
-71 -4 -2 -26 -7 -48 -10 -23 -4 -56 -11 -75 -16 -64 -19 -69 -16 -69 43 0
180 -118 275 -306 247 -25 -4 -47 -4 -49 0 -2 4 -7 44 -9 88 -8 127 -48 199
-133 242 -50 25 -144 33 -205 17 l-27 -7 3 55 c3 60 0 66 -45 69 -29 2 -29 2
-30 -53 -1 -31 -1 -62 0 -68 1 -7 -4 -13 -11 -14 -7 0 -22 -2 -33 -5 -11 -2
-33 -5 -48 -6 -26 -2 -28 -5 -25 -38 3 -38 18 -43 83 -30 l31 7 -2 -71 c-4
-123 41 -210 132 -257 42 -21 60 -24 145 -22 l96 1 2 -56 c3 -131 38 -199 126
-245 42 -21 123 -28 183 -15 l33 8 -4 -62 c-5 -81 8 -128 49 -177 45 -52 105
-75 182 -69 192 17 281 166 199 336 -14 28 -22 54 -19 56 4 2 25 7 47 11 93
17 172 84 195 166 16 56 11 100 -24 189 l-33 85 63 16 c151 39 224 126 224
265 0 28 -7 71 -15 94 -21 59 -19 65 17 68 46 4 118 38 156 75 73 70 96 154
76 279 -7 45 -12 84 -10 85 1 2 25 5 52 8 111 13 177 50 225 129 27 43 32 61
33 116 0 36 -3 86 -8 111 l-8 46 76 8 c81 7 84 10 70 62 -5 17 -12 22 -28 18
-11 -2 -47 -6 -78 -9 -64 -6 -58 -12 -78 87 -12 58 -13 61 -21 52z m-14 -257
c4 -16 5 -31 3 -33 -2 -3 -21 8 -41 22 -39 27 -37 37 7 39 20 2 26 -4 31 -28z
m-48 -82 c53 -36 67 -52 59 -71 -4 -12 -28 1 -106 57 -87 64 -98 75 -84 85 14
10 23 8 53 -15 20 -15 55 -40 78 -56z m-39 -98 c53 -39 60 -47 47 -58 -12 -10
-31 0 -114 59 -81 57 -98 74 -94 91 5 19 8 18 52 -14 25 -18 74 -53 109 -78z
m-98 -55 c27 -20 50 -41 50 -45 0 -4 -15 -8 -32 -8 -18 0 -42 -3 -54 -6 -18
-5 -22 1 -31 51 -11 65 -10 65 67 8z m-107 -186 c2 -18 3 -33 2 -35 -2 -2 -27
10 -56 27 -53 30 -53 36 1 43 38 6 48 -1 53 -35z m-83 -64 c66 -38 100 -64
100 -75 0 -10 -4 -18 -10 -18 -5 0 -55 27 -111 60 -55 33 -105 60 -110 60 -11
0 -12 14 -2 23 13 14 36 5 133 -50z m-107 -58 c32 -19 60 -35 62 -35 2 0 28
-15 58 -33 44 -26 52 -35 44 -48 -9 -14 -25 -8 -124 49 -78 46 -113 71 -113
84 0 25 6 23 73 -17z m79 -171 c1 -5 -22 -14 -50 -20 l-51 -12 -20 60 -20 59
70 -38 c39 -22 71 -43 71 -49z m-142 -150 c7 -19 10 -37 8 -40 -5 -5 -95 43
-102 55 -3 4 9 8 27 9 17 2 33 5 36 7 11 12 20 3 31 -31z m-152 -28 c20 -13
70 -42 110 -65 39 -23 72 -44 72 -46 0 -2 -3 -10 -6 -18 -4 -12 -32 0 -129 56
-108 63 -122 74 -108 85 21 15 17 16 61 -12z m20 -130 c106 -61 120 -72 108
-84 -12 -13 -30 -6 -133 54 -65 37 -119 68 -121 69 -6 4 11 36 17 33 4 -2 62
-34 129 -72z m5 -121 c16 -11 12 -14 -27 -24 -63 -15 -64 -15 -80 22 -34 84
-35 83 30 47 33 -19 67 -39 77 -45z m-1225 10 c-14 -11 -34 -31 -46 -44 l-22
-25 0 41 c0 38 3 42 28 45 59 9 66 5 40 -17z m136 8 c7 -7 -172 -193 -186
-193 -27 0 3 48 73 118 78 78 97 91 113 75z m-14 -174 c-82 -83 -106 -99 -124
-82 -4 4 37 51 91 105 85 85 100 96 110 82 10 -13 -3 -30 -77 -105z m994 -38
c-2 -2 -29 7 -61 20 l-58 23 45 11 c44 11 45 11 62 -19 9 -17 15 -33 12 -35z
m-892 -13 c3 -29 0 -49 -6 -51 -22 -7 -106 -8 -106 -1 0 8 102 106 106 101 1
-1 4 -23 6 -49z m926 -97 c2 -12 1 -21 -1 -21 -4 0 -87 35 -142 60 -11 5 -42
18 -70 30 -45 19 -48 23 -32 35 16 11 33 7 130 -35 86 -37 113 -53 115 -69z
m-102 -48 c57 -24 89 -43 87 -50 -7 -21 -33 -15 -153 36 -89 37 -116 53 -118
69 -3 20 -3 20 45 2 26 -10 89 -36 139 -57z m-676 28 c0 -3 -15 -23 -34 -43
l-33 -37 -1 39 c-2 33 2 39 21 42 34 6 47 5 47 -1z m128 -11 c-2 -4 -32 -40
-68 -80 -36 -40 -72 -81 -82 -92 -16 -19 -16 -19 -23 2 -5 16 0 30 17 48 72
79 104 115 110 127 8 13 51 9 46 -5z m62 -84 c-32 -51 -143 -164 -156 -159
-18 7 -18 21 -1 37 7 8 44 48 82 90 47 52 72 73 79 66 7 -7 6 -18 -4 -34z
m382 0 c14 -8 42 -19 62 -26 20 -6 36 -15 36 -19 0 -4 -23 -12 -51 -17 l-50
-11 -20 38 c-28 55 -25 60 23 35z m-360 -119 c-7 -27 -20 -37 -51 -37 -25 0
-25 0 9 35 36 37 51 38 42 2z m267 -84 c6 -21 12 -49 15 -63 2 -14 11 -55 19
-93 14 -64 14 -68 -4 -78 -11 -5 -19 -8 -19 -5 0 3 -7 36 -15 75 -8 39 -17 84
-20 100 -3 17 -9 41 -15 55 -7 20 -6 27 8 35 9 6 18 11 19 11 1 0 7 -17 12
-37z m-81 -103 c27 -121 30 -152 15 -157 -17 -6 -27 22 -54 150 -20 93 -21
110 -9 117 19 12 23 4 48 -110z m185 -4 c2 -20 3 -36 0 -36 -6 0 -20 43 -27
85 -6 39 -6 40 9 14 8 -15 16 -43 18 -63z m-301 37 c0 -4 4 -18 9 -31 5 -13
11 -37 14 -55 3 -18 8 -40 11 -49 8 -25 -9 -22 -25 4 -14 22 -29 158 -16 146
3 -3 7 -10 7 -15z"/>
</g>
</svg>
