<?xml version="1.0" encoding="utf-8"?>
<!-- Svg Vector Icons : http://www.onlinewebfonts.com/icon -->
<!DOCTYPE svg PUBLIC "-//W3C//DTD SVG 1.1//EN" "http://www.w3.org/Graphics/SVG/1.1/DTD/svg11.dtd">
<svg version="1.1" xmlns="http://www.w3.org/2000/svg" xmlns:xlink="http://www.w3.org/1999/xlink" x="0px" y="0px" viewBox="0 0 1000 1000" enable-background="new 0 0 1000 1000" xml:space="preserve">
<metadata> Svg Vector Icons : http://www.onlinewebfonts.com/icon </metadata>
<g><g transform="translate(0.000000,511.000000) scale(0.100000,-0.100000)"><path d="M4626.4,4998C2554,4839.9,780.6,3362.8,256.9,1354.7c-205-790.4-210-1669.7-9.9-2452.7c516.2-2045.2,2314.4-3544.5,4416.4-3682.9c1193-79,2351.5,266.8,3307.4,990.5c259.4,195.1,731.1,666.9,926.3,926.3c1459.8,1931.6,1311.6,4611.6-350.7,6350.5C7521.3,4555.8,6091.1,5109.1,4626.4,4998z M5283.4,4010c536-44.5,1000.4-170.4,1445-392.7c785.5-392.7,1380.8-988,1778.4-1776c540.9-1079.4,540.9-2388.5,0-3467.9c-397.7-787.9-985.6-1375.8-1773.5-1773.5c-1079.4-540.9-2388.5-540.9-3467.9,0C1316.5-2419.6,531.1-90.3,1496.9,1848.7C2107,3073.8,3324.7,3903.7,4665.9,4007.5c135.8,12.3,264.3,22.2,284.1,22.2C4969.7,4032.2,5120.4,4022.3,5283.4,4010z"/><path d="M4668.4,2812c-454.5-126-822.5-486.6-965.8-951c-32.1-101.3-46.9-261.8-54.3-622.5l-14.8-489.1h-217.4c-202.5,0-222.3-4.9-256.9-59.3c-34.6-51.9-39.5-202.5-32.1-1291.9c7.4-1094.2,12.3-1239.9,49.4-1321.5c71.6-160.6,168-264.3,311.2-333.5l140.8-69.2h1395.6c1543.8,0,1472.1-7.4,1667.3,163c51.9,46.9,121,138.3,150.7,207.5l59.3,123.5V-567c0,1225.1-2.5,1267.1-46.9,1291.8c-32.1,14.8-496.5,24.7-1336.3,24.7H4228.7l9.9,452c7.4,422.4,12.4,457,71.6,585.4c138.3,296.4,353.2,447.1,664.4,464.4c148.2,7.4,214.9,0,328.5-44.5c264.3-98.8,486.6-400.2,486.6-657c0-279.1,244.5-439.7,461.9-306.3c118.6,71.6,138.3,128.4,123.5,355.7c-34.6,545.9-410,1020.1-938.6,1188.1C5214.3,2858.9,4875.9,2868.8,4668.4,2812z M5169.8-159.5c202.5-108.7,229.7-375.4,54.3-533.5c-46.9-42-51.9-74.1-51.9-335.9c0-190.2-9.9-296.4-29.6-316.2c-42-42-207.5-37.1-251.9,9.9c-32.1,29.6-39.5,96.3-39.5,323.6c0,281.6,0,286.5-74.1,370.5C4547.4-381.8,4863.5,3.5,5169.8-159.5z"/></g></g>
</svg>