<?xml version="1.0" encoding="utf-8"?>
<!-- Svg Vector Icons : http://www.onlinewebfonts.com/icon -->
<!DOCTYPE svg PUBLIC "-//W3C//DTD SVG 1.1//EN" "http://www.w3.org/Graphics/SVG/1.1/DTD/svg11.dtd">
<svg version="1.1" xmlns="http://www.w3.org/2000/svg" xmlns:xlink="http://www.w3.org/1999/xlink" x="0px" y="0px" viewBox="0 0 1000 1000" enable-background="new 0 0 1000 1000" xml:space="preserve">
<metadata> Svg Vector Icons : http://www.onlinewebfonts.com/icon </metadata>
<g><g transform="translate(0.000000,511.000000) scale(0.100000,-0.100000)"><path d="M4493.5,4985.6c-902.2-92.1-1831.9-474.1-2566.1-1056.3C921.7,3130.7,247.4,1881,123.1,583c-142.7-1454.5,382-2915.9,1413.1-3940c1663.9-1652.4,4236.9-1905.6,6186.2-605.3c1090.9,725,1859.5,1894.1,2096.6,3182.9c292.3,1583.4-216.3,3212.8-1355.5,4352C7425.5,4612.8,5961.8,5132.9,4493.5,4985.6z M7114.8,3110c586.9-142.7,1049.4-603,1199-1192.1c39.2-158.8,46-257.8,46-743.4V615.3h-423.5h-425.8l-6.9,570.7c-6.9,547.7-9.2,573.1-62.2,672c-80.5,154.2-135.8,218.6-246.2,299.2c-140.4,101.3-271.6,140.4-464.9,140.4c-218.6,0-398.2-78.2-547.8-237.1c-191-204.8-204.8-255.4-211.7-835.4l-6.9-508.6l138.1-27.6c181.8-39.1,317.6-140.4,400.4-301.5l62.1-126.6V-804.7c0-853.8-6.9-1081.7-32.2-1143.8c-48.3-117.4-174.9-246.3-301.5-303.8l-115.1-55.2H4502.7c-1795.1,0-1744.5-4.6-1907.9,154.2c-48.3,46-108.2,131.2-135.8,188.7c-46,103.6-48.3,135.8-48.3,1164.5V258.5l52.9,108.2c29.9,59.8,94.4,145,142.7,188.7c163.4,147.3,202.5,151.9,1420,151.9h1088.6v483.3c0,589.2,27.6,750.3,177.2,1058.7c89.7,186.4,135.8,248.5,315.3,425.8c234.7,234.8,432.7,347.5,727.2,425.8C6553.2,3156,6907.7,3160.6,7114.8,3110z"/><path d="M4334.7-293.8c-363.6-112.8-464.9-605.3-179.5-856.1l85.2-73.7V-1502v-276.2h253.2h253.2v271.6v271.6l101.3,108.2c142.7,147.3,181.8,306.1,126.6,510.9c-34.5,128.9-211.7,294.6-349.8,329.1C4495.8-252.4,4463.6-254.7,4334.7-293.8z"/></g></g>
</svg>